PathFileType	4	(X/Y/Z)	C:\Users\WrightLab\Desktop\Jo\P5V15.trc
DataRate	CameraRate	NumFrames	NumMarkers	Units	OrigDataRate	OrigDataStartFrame	OrigNumFrames
100.00	100.00	       33	19	mm	100.00	202	       805
Frame#	Time	Headset_Front			Headset_Back			Headset_Left			Headset_Right			Left_Shoulder			Right_Shoulder			Sternum			C7			Left Elbow			Right Elbow			Left Wrist			Right Wrist			Left ASIS			Right ASIS			S2			Left Knee			Right Knee			Left Ankle			Right Ankle			
		X1	Y1	Z1	X2	Y2	Z2	X3	Y3	Z3	X4	Y4	Z4	X5	Y5	Z5	X6	Y6	Z6	X7	Y7	Z7	X8	Y8	Z8	X9	Y9	Z9	X10	Y10	Z10	X11	Y11	Z11	X12	Y12	Z12	X13	Y13	Z13	X14	Y14	Z14	X15	Y15	Z15	X16	Y16	Z16	X17	Y17	Z17	X18	Y18	Z18	X19	Y19	Z19	

202	2.010																												-181.07573	1203.79736	1592.21045	-832.63104	1077.17761	1573.16589	-190.38301	1004.75690	1437.21997													-396.97107	537.55286	1582.77075							
203	2.020																												-183.05931	1204.31030	1589.98083	-835.42676	1078.27612	1566.82153	-191.72635	1005.48669	1435.44543													-395.65619	537.13660	1579.45996							
204	2.030																												-186.04765	1204.68262	1588.71704	-838.21503	1079.52856	1560.25342	-193.60443	1005.32867	1433.65393													-393.69867	536.21985	1575.04797							
205	2.040																												-188.89464	1203.72961	1586.15601	-840.84149	1080.61487	1553.80542	-195.64001	1005.01373	1431.06787													-392.96030	536.22620	1572.01465							
206	2.050	-599.99506	1660.11243	1403.91028																									-190.81982	1203.89478	1585.16125	-843.83856	1081.30139	1547.39771	-196.89578	1005.11530	1429.80945				-444.39011	958.67188	1485.20898							-392.28455	535.51349	1567.21191							
207	2.060	-601.74597	1661.40784	1400.25745																									-192.50409	1204.51025	1584.72083	-846.63812	1082.07654	1540.63220	-198.61737	1005.37854	1427.96692				-444.83365	960.37799	1479.33582				-699.60718	530.69482	1687.55029	-392.14246	535.02405	1564.38916							
208	2.070	-602.64911	1662.35620	1396.58118																									-196.12868	1203.34949	1582.35339	-849.26752	1082.58191	1534.37866	-200.23860	1005.42902	1426.16980				-444.75476	959.81110	1474.19019				-707.92523	531.58405	1675.30530	-391.59485	535.05774	1559.63379							
209	2.080	-603.66974	1663.16174	1392.94067																									-197.69597	1204.71277	1581.63794	-852.42755	1082.81152	1529.90234	-201.59061	1005.75537	1424.55115				-445.31354	960.35168	1470.77185				-716.40015	533.15955	1663.02905	-392.03381	534.22369	1555.09924							
210	2.090	-605.07336	1664.27856	1389.24646																									-200.73254	1204.34375	1579.20349	-855.28107	1083.42993	1523.60156	-203.54762	1006.22534	1422.84229				-446.52405	959.64496	1467.01282				-724.32080	534.77307	1651.77673	-392.23529	533.32678	1551.47534							
211	2.100	-605.77319	1665.22803	1385.42456																									-202.44049	1204.57214	1578.94434	-857.88965	1083.49219	1517.22546	-204.95915	1005.95709	1421.41760				-446.63910	960.04498	1463.02710				-732.66327	536.28955	1641.49536	-392.83054	532.41302	1546.21655							
212	2.110	-607.63562	1666.34875	1381.65100																									-205.90985	1203.60938	1576.44702	-860.74469	1083.68079	1510.70337	-206.49908	1006.60547	1419.64270				-447.34708	960.37427	1459.91357				-740.60187	537.69238	1631.11584	-393.40039	531.81970	1542.06641							
213	2.120	-607.99323	1666.91418	1377.67749																									-207.54677	1203.75232	1576.40356	-863.80005	1083.93555	1504.25891	-208.12195	1006.65619	1417.97620				-447.82761	959.98853	1455.89270				-749.18793	540.74591	1622.69824	-394.31528	531.32251	1538.42615							
214	2.130	-610.13129	1668.21924	1373.77734																									-210.50531	1203.80627	1574.06372	-866.56769	1083.97351	1497.74390	-209.73569	1007.08789	1415.98608				-448.33997	959.86017	1452.63953				-755.42615	541.37689	1611.99988	-395.37222	531.09918	1534.22388							
215	2.140	-610.45886	1668.59668	1369.75500																									-212.72670	1204.65247	1573.07251	-869.49823	1083.93677	1491.17517	-211.76033	1006.85577	1413.81604				-449.25964	959.73163	1448.19434				-762.14380	543.38269	1601.60278	-396.42535	530.36078	1530.01514							
216	2.150	-612.31024	1669.37878	1365.76575																									-215.90012	1203.65027	1570.74536	-872.23114	1083.76428	1484.60974	-212.63113	1006.97437	1412.56152				-450.19061	960.01807	1445.06140				-768.48505	545.33618	1591.38538	-397.76682	530.13904	1526.61609							
217	2.160	-613.13306	1669.89294	1361.65430																									-218.19260	1203.98242	1569.87061	-875.10022	1083.58154	1477.87329	-214.61565	1007.12622	1410.31848				-449.51068	960.57574	1440.61096				-774.54291	547.22919	1581.14734	-398.22720	529.39996	1523.50793							
218	2.170	-614.73657	1670.64014	1357.55090	-560.31256	1349.99072	1449.83411																						-221.40398	1203.56177	1567.28870	-878.08392	1083.32495	1470.89355	-215.98015	1007.27673	1408.49255				-450.64291	960.14038	1437.87268				-779.84906	548.81494	1570.89294	-399.38101	529.06873	1520.14124							
219	2.180	-615.67291	1670.99292	1353.32898	-561.26184	1349.81506	1447.80530																						-223.88963	1203.74707	1565.35791	-880.87146	1083.25061	1463.97754	-218.03149	1007.26306	1406.25977				-451.07971	959.84363	1434.92480				-784.67932	550.42090	1560.58984	-400.08209	528.58301	1516.94385							
220	2.190	-617.08582	1671.40381	1349.07471	-562.94092	1348.83826	1442.95081																						-226.74503	1203.65027	1563.46777	-883.65894	1082.65442	1456.90271	-219.70540	1007.21069	1404.31641				-451.41687	959.90393	1431.84705				-788.66418	551.47076	1550.25488	-401.95850	527.29443	1512.99780							
221	2.200	-618.10175	1671.64563	1344.79358	-564.31665	1348.86023	1438.71680																						-228.93890	1203.75513	1562.52417	-886.67249	1082.48450	1449.65247	-220.97955	1007.10413	1402.23022				-451.82599	959.26294	1428.53992				-792.42297	552.19983	1540.04565	-402.78574	527.24902	1510.00549							
222	2.210	-619.92773	1672.21130	1340.48083	-566.15735	1348.76697	1433.53296																						-232.41673	1202.78564	1559.31421	-889.54309	1082.02356	1442.38904	-222.89040	1006.67981	1399.27539				-453.17307	959.52069	1423.65405				-795.97156	552.70935	1530.03198	-404.39304	526.56171	1507.07178							
223	2.220	-621.23315	1672.55029	1336.16296	-567.70605	1348.08801	1428.88977																						-236.03490	1202.02576	1556.56250	-892.30432	1081.53015	1435.00293	-224.60326	1006.47076	1395.97278				-453.71460	958.96527	1420.65833				-799.94214	553.68622	1520.14771	-405.83264	525.86310	1505.32227							
224	2.230	-623.05267	1672.84485	1331.91345	-569.45087	1347.00439	1423.95801																						-238.07237	1202.06714	1555.53967	-895.05432	1080.99963	1427.90747	-226.91055	1006.19781	1395.31970				-454.53305	958.64319	1417.13940				-804.44977	555.19397	1510.62183	-407.54419	525.00568	1502.59558							
225	2.240	-623.96436	1672.66663	1327.58020	-571.01599	1346.26697	1419.24487																						-241.43324	1201.40479	1553.36511	-897.92798	1080.67688	1419.66528	-228.51869	1006.08258	1392.75940				-455.38782	957.90552	1413.56238				-809.19354	556.49780	1501.33020	-409.44760	523.77655	1501.32312							
226	2.250	-626.55688	1673.07800	1323.32263	-572.29541	1345.58752	1415.25049																						-244.82648	1201.16223	1550.21228	-900.79950	1080.30786	1411.98547	-230.22929	1006.13751	1391.26074				-456.42334	957.41986	1410.71094				-813.80988	557.23828	1492.60986	-411.31805	523.18121	1498.79895							
227	2.260	-627.63470	1672.91638	1318.89001	-574.32648	1345.83203	1410.37366																						-247.13968	1201.28882	1548.78076	-903.79559	1079.84631	1403.80603	-232.57582	1005.62366	1387.96667				-458.29153	956.36115	1406.70984				-818.50336	557.73480	1484.35730	-413.94400	522.47180	1496.65515							
228	2.270	-629.91217	1673.18420	1314.42871	-576.51154	1344.72449	1404.35791																						-250.70377	1199.96045	1546.03992	-906.66968	1079.44141	1395.72192	-234.59645	1004.93390	1385.41589				-459.50360	956.32959	1402.86414				-823.12323	557.86792	1476.41956	-415.96240	521.18573	1495.16150							
229	2.280	-631.73059	1673.20215	1309.78589	-578.15912	1344.05090	1399.89819																						-253.77942	1198.84778	1543.28198	-909.34222	1078.73560	1387.27966	-236.61139	1004.32098	1383.78064				-461.15585	955.09534	1400.14636				-828.04724	557.99268	1468.75256	-419.04538	520.81073	1492.63770							
230	2.290	-633.45563	1673.07971	1304.93872	-580.01550	1342.81079	1394.64270										-355.28970	1457.81567	1440.16895										-256.34634	1198.63550	1542.21887	-912.27850	1078.56555	1378.65344	-238.83319	1004.03790	1380.61768				-462.94434	954.15546	1396.39929	-748.04980	971.26563	1452.57458	-832.87769	557.84070	1461.49072	-421.58826	519.49036	1490.80676							
231	2.300	-636.23029	1673.17725	1300.05457	-581.86719	1341.61145	1389.62732										-357.82675	1455.84753	1435.59302										-259.75510	1197.47339	1538.81702	-915.00012	1077.93823	1370.01904	-240.78723	1003.70178	1377.19910				-465.15710	953.79816	1392.21863	-749.51178	969.03363	1445.66321	-837.78204	557.55170	1454.34778	-425.04181	518.73761	1487.55786							
232	2.310	-637.35541	1672.53320	1294.87634	-584.33154	1341.63318	1383.77698										-361.39783	1454.28235	1431.51208							-891.14502	1272.42041	1500.89014	-263.50726	1196.29700	1535.81702	-917.61664	1077.42334	1361.07446	-242.68260	1003.39795	1375.15002				-466.69196	952.33209	1388.39587	-751.45209	969.28900	1440.15381	-842.73517	557.11523	1447.52014	-427.61929	517.69098	1485.31812				-451.35226	140.64966	1682.05908	
233	2.320	-639.25336	1672.07593	1289.44763	-586.25653	1340.18250	1378.37549				-411.03278	1611.04810	1295.68750				-364.30478	1453.92517	1429.06287							-894.73706	1271.54895	1492.28918	-266.52545	1196.39258	1534.40747	-920.49243	1077.03992	1352.00500	-245.25233	1002.80121	1371.93945				-468.87296	952.02344	1383.75769	-753.51691	966.50861	1436.51074	-847.59180	556.32843	1440.78491	-431.27902	516.48828	1481.66223	-913.37781	154.84306	1498.78088	-451.48337	140.56834	1680.83789	
234	2.330	-642.03473	1671.85217	1284.06091	-588.38147	1338.88770	1372.99268																			-898.24066	1270.49634	1483.55737	-270.16229	1195.09326	1530.61694	-923.22125	1076.30774	1342.77734	-247.46651	1001.87891	1369.53479				-470.60904	950.72241	1379.54639	-755.34467	967.04803	1428.26636	-852.67609	555.67883	1434.24084	-434.86636	515.47009	1479.45203	-921.86932	152.38863	1477.21533	-451.96683	141.26315	1680.54150	
